name ../IE_Laxity/ie_45.mot
datacolumns  10
datarows 46
range   7.00000000 7.45000000
cursor 1.0 1.0 0.0
keys m_key
wrap
enforce_loops no
enforce_constraints no
calc_derivatives -1.000000
event_color 0.000000 0.000000 0.000000
endheader
            time femur_r_force_vx femur_r_force_vy femur_r_force_vz femur_r_force_px femur_r_force_py femur_r_force_pz femur_r_torque_x femur_r_torque_y femur_r_torque_z 
      7.00000000       0.00000000       0.00000000       0.00000000      -0.05123681      -0.49427285       0.00000000      -3.17691146      -3.17691146       0.00000000 
      7.01000000       0.00000000       0.00000000       0.00000000      -0.05123681      -0.49427285       0.00000000      -3.18221660      -3.18221660       0.00000000 
      7.02000000       0.00000000       0.00000000       0.00000000      -0.05123681      -0.49427285       0.00000000      -3.18748657      -3.18748657       0.00000000 
      7.03000000       0.00000000       0.00000000       0.00000000      -0.05123681      -0.49427285       0.00000000      -3.19272123      -3.19272123       0.00000000 
      7.04000000       0.00000000       0.00000000       0.00000000      -0.05123681      -0.49427285       0.00000000      -3.19792046      -3.19792046       0.00000000 
      7.05000000       0.00000000       0.00000000       0.00000000      -0.05123681      -0.49427285       0.00000000      -3.20308413      -3.20308413       0.00000000 
      7.06000000       0.00000000       0.00000000       0.00000000      -0.05123681      -0.49427285       0.00000000      -3.20821210      -3.20821210       0.00000000 
      7.07000000       0.00000000       0.00000000       0.00000000      -0.05123681      -0.49427285       0.00000000      -3.21330426      -3.21330426       0.00000000 
      7.08000000       0.00000000       0.00000000       0.00000000      -0.05123681      -0.49427285       0.00000000      -3.21836047      -3.21836047       0.00000000 
      7.09000000       0.00000000       0.00000000       0.00000000      -0.05123681      -0.49427285       0.00000000      -3.22338061      -3.22338061       0.00000000 
      7.10000000       0.00000000       0.00000000       0.00000000      -0.05123681      -0.49427285       0.00000000      -3.22836455      -3.22836455       0.00000000 
      7.11000000       0.00000000       0.00000000       0.00000000      -0.05123681      -0.49427285       0.00000000      -3.23331218      -3.23331218       0.00000000 
      7.12000000       0.00000000       0.00000000       0.00000000      -0.05123681      -0.49427285       0.00000000      -3.23822336      -3.23822336       0.00000000 
      7.13000000       0.00000000       0.00000000       0.00000000      -0.05123681      -0.49427285       0.00000000      -3.24309797      -3.24309797       0.00000000 
      7.14000000       0.00000000       0.00000000       0.00000000      -0.05123681      -0.49427285       0.00000000      -3.24793590      -3.24793590       0.00000000 
      7.15000000       0.00000000       0.00000000       0.00000000      -0.05123681      -0.49427285       0.00000000      -3.25273702      -3.25273702       0.00000000 
      7.16000000       0.00000000       0.00000000       0.00000000      -0.05123681      -0.49427285       0.00000000      -3.25750121      -3.25750121       0.00000000 
      7.17000000       0.00000000       0.00000000       0.00000000      -0.05123681      -0.49427285       0.00000000      -3.26222836      -3.26222836       0.00000000 
      7.18000000       0.00000000       0.00000000       0.00000000      -0.05123681      -0.49427285       0.00000000      -3.26691835      -3.26691835       0.00000000 
      7.19000000       0.00000000       0.00000000       0.00000000      -0.05123681      -0.49427285       0.00000000      -3.27157106      -3.27157106       0.00000000 
      7.20000000       0.00000000       0.00000000       0.00000000      -0.05123681      -0.49427285       0.00000000      -3.27618637      -3.27618637       0.00000000 
      7.21000000       0.00000000       0.00000000       0.00000000      -0.05123681      -0.49427285       0.00000000      -3.28076418      -3.28076418       0.00000000 
      7.22000000       0.00000000       0.00000000       0.00000000      -0.05123681      -0.49427285       0.00000000      -3.28530436      -3.28530436       0.00000000 
      7.23000000       0.00000000       0.00000000       0.00000000      -0.05123681      -0.49427285       0.00000000      -3.28980681      -3.28980681       0.00000000 
      7.24000000       0.00000000       0.00000000       0.00000000      -0.05123681      -0.49427285       0.00000000      -3.29427140      -3.29427140       0.00000000 
      7.25000000       0.00000000       0.00000000       0.00000000      -0.05123681      -0.49427285       0.00000000      -3.29869804      -3.29869804       0.00000000 
      7.26000000       0.00000000       0.00000000       0.00000000      -0.05123681      -0.49427285       0.00000000      -3.30308661      -3.30308661       0.00000000 
      7.27000000       0.00000000       0.00000000       0.00000000      -0.05123681      -0.49427285       0.00000000      -3.30743700      -3.30743700       0.00000000 
      7.28000000       0.00000000       0.00000000       0.00000000      -0.05123681      -0.49427285       0.00000000      -3.31174911      -3.31174911       0.00000000 
      7.29000000       0.00000000       0.00000000       0.00000000      -0.05123681      -0.49427285       0.00000000      -3.31602282      -3.31602282       0.00000000 
      7.30000000       0.00000000       0.00000000       0.00000000      -0.05123681      -0.49427285       0.00000000      -3.32025803      -3.32025803       0.00000000 
      7.31000000       0.00000000       0.00000000       0.00000000      -0.05123681      -0.49427285       0.00000000      -3.32445463      -3.32445463       0.00000000 
      7.32000000       0.00000000       0.00000000       0.00000000      -0.05123681      -0.49427285       0.00000000      -3.32861253      -3.32861253       0.00000000 
      7.33000000       0.00000000       0.00000000       0.00000000      -0.05123681      -0.49427285       0.00000000      -3.33273161      -3.33273161       0.00000000 
      7.34000000       0.00000000       0.00000000       0.00000000      -0.05123681      -0.49427285       0.00000000      -3.33681178      -3.33681178       0.00000000 
      7.35000000       0.00000000       0.00000000       0.00000000      -0.05123681      -0.49427285       0.00000000      -3.34085293      -3.34085293       0.00000000 
      7.36000000       0.00000000       0.00000000       0.00000000      -0.05123681      -0.49427285       0.00000000      -3.34485496      -3.34485496       0.00000000 
      7.37000000       0.00000000       0.00000000       0.00000000      -0.05123681      -0.49427285       0.00000000      -3.34881778      -3.34881778       0.00000000 
      7.38000000       0.00000000       0.00000000       0.00000000      -0.05123681      -0.49427285       0.00000000      -3.35274128      -3.35274128       0.00000000 
      7.39000000       0.00000000       0.00000000       0.00000000      -0.05123681      -0.49427285       0.00000000      -3.35662537      -3.35662537       0.00000000 
      7.40000000       0.00000000       0.00000000       0.00000000      -0.05123681      -0.49427285       0.00000000      -3.36046994      -3.36046994       0.00000000 
      7.41000000       0.00000000       0.00000000       0.00000000      -0.05123681      -0.49427285       0.00000000      -3.36427492      -3.36427492       0.00000000 
      7.42000000       0.00000000       0.00000000       0.00000000      -0.05123681      -0.49427285       0.00000000      -3.36804019      -3.36804019       0.00000000 
      7.43000000       0.00000000       0.00000000       0.00000000      -0.05123681      -0.49427285       0.00000000      -3.37176567      -3.37176567       0.00000000 
      7.44000000       0.00000000       0.00000000       0.00000000      -0.05123681      -0.49427285       0.00000000      -3.37545126      -3.37545126       0.00000000 
      7.45000000       0.00000000       0.00000000       0.00000000      -0.05123681      -0.49427285       0.00000000      -3.37909688      -3.37909688       0.00000000 
